# xmcd CD database file
#
# Track frame offsets:
#	150
#	17650
#	35109
#	53563
#	72285
#	83915
#	103089
#	121274
#
# Disc length: 1809 seconds
#
# Revision: 0
# Processed by: cddbd v1.5.1PL0 Copyright (c) Steve Scherf et al.
# Submitted via: CdAid (MTCDDB.DLL V2003.01.23)
#
DISCID=64070f08
DTITLE=Doug Dunn - Doug Dunn
DYEAR=2005
DGENRE=Country
TTITLE0=It Is What It Is
TTITLE1=How Did You Know
TTITLE2=Pixie Tattoo
TTITLE3=Thirty Something Crazy
TTITLE4=Jesus May Forgive
TTITLE5=Hello Stranger
TTITLE6=Long Road To Heaven
TTITLE7=Red Headed Stepchild
EXTD=YEAR: 2005 ID3G:  17 
EXTT0=
EXTT1=
EXTT2=
EXTT3=
EXTT4=
EXTT5=
EXTT6=
EXTT7=
PLAYORDER=
